# xmcd
#
# Track frame offsets:
#	150
#	14820
#	33247
#	51250
#	78027
#	96915
#	119872
#	137445
#	160227
#	188860
#
# Disc length: 2742 seconds
#
# Revision: 1
# Processed by: cddbd v1.5PL3 Copyright (c) Steve Scherf et al.
# Submitted via: CDex 1.50Beta5
#
DISCID=830ab40a
DTITLE=THE GROOVERS - SETZNA
DYEAR=1900
DGENRE=Rock
TTITLE0=ARROW
TTITLE1=Groovaholic
TTITLE2=ミスター・デザイア
TTITLE3=情炎
TTITLE4=HOT ROD ADDICT
TTITLE5=断崖の花
TTITLE6=車輪の上
TTITLE7=CODE NAME:CONFUSION
TTITLE8=遥かなる
TTITLE9=サンダーガール
EXTD=
EXTT0=
EXTT1=
EXTT2=
EXTT3=
EXTT4=
EXTT5=
EXTT6=
EXTT7=
EXTT8=
EXTT9=
PLAYORDER=
